{"metadata":{"kernelspec":{"language":"python","display_name":"Python 3","name":"python3"},"language_info":{"name":"python","version":"3.10.13","mimetype":"text/x-python","codemirror_mode":{"name":"ipython","version":3},"pygments_lexer":"ipython3","nbconvert_exporter":"python","file_extension":".py"},"kaggle":{"accelerator":"none","dataSources":[{"sourceId":9068930,"sourceType":"datasetVersion","datasetId":5440379}],"dockerImageVersionId":30746,"isInternetEnabled":true,"language":"python","sourceType":"notebook","isGpuEnabled":false}},"nbformat_minor":4,"nbformat":4,"cells":[{"cell_type":"code","source":"!apt-get update && apt-get install -y ffmpeg","metadata":{"_uuid":"8f2839f25d086af736a60e9eeb907d3b93b6e0e5","_cell_guid":"b1076dfc-b9ad-4769-8c92-a6c4dae69d19","execution":{"iopub.status.busy":"2024-07-31T12:37:45.282552Z","iopub.execute_input":"2024-07-31T12:37:45.282934Z","iopub.status.idle":"2024-07-31T12:37:52.703616Z","shell.execute_reply.started":"2024-07-31T12:37:45.282903Z","shell.execute_reply":"2024-07-31T12:37:52.702295Z"},"trusted":true},"execution_count":1,"outputs":[{"name":"stdout","text":"Hit:1 http://archive.ubuntu.com/ubuntu focal InRelease\nGet:2 http://security.ubuntu.com/ubuntu focal-security InRelease [128 kB]\nGet:3 http://archive.ubuntu.com/ubuntu focal-updates InRelease [128 kB]        \nGet:4 https://packages.cloud.google.com/apt gcsfuse-focal InRelease [1225 B]   \nHit:5 http://archive.ubuntu.com/ubuntu focal-backports InRelease\nGet:6 https://packages.cloud.google.com/apt cloud-sdk InRelease [1616 B]\nGet:7 http://security.ubuntu.com/ubuntu focal-security/universe amd64 Packages [1252 kB]\nGet:8 http://security.ubuntu.com/ubuntu focal-security/restricted amd64 Packages [3817 kB]\nGet:9 http://archive.ubuntu.com/ubuntu focal-updates/universe amd64 Packages [1539 kB]\nGet:10 http://security.ubuntu.com/ubuntu focal-security/main amd64 Packages [3844 kB]\nGet:11 http://archive.ubuntu.com/ubuntu focal-updates/restricted amd64 Packages [3969 kB]\nGet:12 http://archive.ubuntu.com/ubuntu focal-updates/main amd64 Packages [4310 kB]\nGet:13 https://packages.cloud.google.com/apt gcsfuse-focal/main amd64 Packages [24.8 kB]\nGet:14 https://packages.cloud.google.com/apt cloud-sdk/main amd64 Packages [3142 kB]\nGet:15 https://packages.cloud.google.com/apt cloud-sdk/main all Packages [1490 kB]\nFetched 23.6 MB in 2s (12.0 MB/s)                           \nReading package lists... Done\nReading package lists... Done\nBuilding dependency tree       \nReading state information... Done\nffmpeg is already the newest version (7:4.2.7-0ubuntu0.1).\n0 upgraded, 0 newly installed, 0 to remove and 82 not upgraded.\n","output_type":"stream"}]},{"cell_type":"code","source":"!ffmpeg -i /kaggle/input/sample-bengaluru-mobility/18th_Crs_BsStp_JN_FIX_1_000.mp4 -vf fps=1 /kaggle/working/frame_%04d.png","metadata":{"execution":{"iopub.status.busy":"2024-07-31T12:39:41.520993Z","iopub.execute_input":"2024-07-31T12:39:41.521371Z","iopub.status.idle":"2024-07-31T12:42:08.893629Z","shell.execute_reply.started":"2024-07-31T12:39:41.521341Z","shell.execute_reply":"2024-07-31T12:42:08.892408Z"},"trusted":true},"execution_count":3,"outputs":[{"execution_count":3,"output_type":"execute_result","data":{"text/plain":"['ffmpeg version 4.2.7-0ubuntu0.1 Copyright (c) 2000-2022 the FFmpeg developers',\n '  built with gcc 9 (Ubuntu 9.4.0-1ubuntu1~20.04.1)',\n '  configuration: --prefix=/usr --extra-version=0ubuntu0.1 --toolchain=hardened --libdir=/usr/lib/x86_64-linux-gnu --incdir=/usr/include/x86_64-linux-gnu --arch=amd64 --enable-gpl --disable-stripping --enable-avresample --disable-filter=resample --enable-avisynth --enable-gnutls --enable-ladspa --enable-libaom --enable-libass --enable-libbluray --enable-libbs2b --enable-libcaca --enable-libcdio --enable-libcodec2 --enable-libflite --enable-libfontconfig --enable-libfreetype --enable-libfribidi --enable-libgme --enable-libgsm --enable-libjack --enable-libmp3lame --enable-libmysofa --enable-libopenjpeg --enable-libopenmpt --enable-libopus --enable-libpulse --enable-librsvg --enable-librubberband --enable-libshine --enable-libsnappy --enable-libsoxr --enable-libspeex --enable-libssh --enable-libtheora --enable-libtwolame --enable-libvidstab --enable-libvorbis --enable-libvpx --enable-libwavpack --enable-libwebp --enable-libx265 --enable-libxml2 --enable-libxvid --enable-libzmq --enable-libzvbi --enable-lv2 --enable-omx --enable-openal --enable-opencl --enable-opengl --enable-sdl2 --enable-libdc1394 --enable-libdrm --enable-libiec61883 --enable-nvenc --enable-chromaprint --enable-frei0r --enable-libx264 --enable-shared',\n '  libavutil      56. 31.100 / 56. 31.100',\n '  libavcodec     58. 54.100 / 58. 54.100',\n '  libavformat    58. 29.100 / 58. 29.100',\n '  libavdevice    58.  8.100 / 58.  8.100',\n '  libavfilter     7. 57.100 /  7. 57.100',\n '  libavresample   4.  0.  0 /  4.  0.  0',\n '  libswscale      5.  5.100 /  5.  5.100',\n '  libswresample   3.  5.100 /  3.  5.100',\n '  libpostproc    55.  5.100 / 55.  5.100',\n \"Input #0, mov,mp4,m4a,3gp,3g2,mj2, from '/kaggle/input/sample-bengaluru-mobility/18th_Crs_BsStp_JN_FIX_1_000.mp4':\",\n '  Metadata:',\n '    major_brand     : isom',\n '    minor_version   : 512',\n '    compatible_brands: isomiso2avc1mp41',\n '    encoder         : Lavf58.76.100',\n '  Duration: 00:15:00.00, start: 0.000000, bitrate: 618 kb/s',\n '    Stream #0:0(und): Video: h264 (High) (avc1 / 0x31637661), yuvj420p(pc, bt709), 1920x1080, 616 kb/s, 25 fps, 25 tbr, 12800 tbn, 50 tbc (default)',\n '    Metadata:',\n '      handler_name    : VideoHandler',\n 'Stream mapping:',\n '  Stream #0:0 -> #0:0 (h264 (native) -> png (native))',\n 'Press [q] to stop, [?] for help',\n '[swscaler @ 0x57026f3f9180] deprecated pixel format used, make sure you did set range correctly',\n \"Output #0, image2, to '/kaggle/working/frame_%04d.png':\",\n '  Metadata:',\n '    major_brand     : isom',\n '    minor_version   : 512',\n '    compatible_brands: isomiso2avc1mp41',\n '    encoder         : Lavf58.29.100',\n '    Stream #0:0(und): Video: png, rgb24, 1920x1080, q=2-31, 200 kb/s, 1 fps, 1 tbn, 1 tbc (default)',\n '    Metadata:',\n '      handler_name    : VideoHandler',\n '      encoder         : Lavc58.54.100 png',\n 'frame=    5 fps=0.0 q=-0.0 size=N/A time=00:00:01.00 bitrate=N/A speed= 1.7x    ',\n 'frame=    8 fps=7.2 q=-0.0 size=N/A time=00:00:04.00 bitrate=N/A speed=3.61x    ',\n 'frame=   11 fps=6.8 q=-0.0 size=N/A time=00:00:07.00 bitrate=N/A speed=4.33x    ',\n 'frame=   14 fps=6.6 q=-0.0 size=N/A time=00:00:10.00 bitrate=N/A speed= 4.7x    ',\n 'frame=   18 fps=6.8 q=-0.0 size=N/A time=00:00:14.00 bitrate=N/A speed=5.33x    ',\n 'frame=   20 fps=6.4 q=-0.0 size=N/A time=00:00:16.00 bitrate=N/A speed= 5.1x    ',\n 'frame=   24 fps=6.6 q=-0.0 size=N/A time=00:00:20.00 bitrate=N/A speed= 5.5x    ',\n 'frame=   26 fps=6.3 q=-0.0 size=N/A time=00:00:22.00 bitrate=N/A speed=5.29x    ',\n 'frame=   29 fps=6.2 q=-0.0 size=N/A time=00:00:25.00 bitrate=N/A speed=5.35x    ',\n 'frame=   33 fps=6.4 q=-0.0 size=N/A time=00:00:29.00 bitrate=N/A speed=5.59x    ',\n 'frame=   37 fps=6.4 q=-0.0 size=N/A time=00:00:33.00 bitrate=N/A speed=5.75x    ',\n 'frame=   40 fps=6.4 q=-0.0 size=N/A time=00:00:36.00 bitrate=N/A speed=5.76x    ',\n 'frame=   43 fps=6.4 q=-0.0 size=N/A time=00:00:39.00 bitrate=N/A speed=5.77x    ',\n 'frame=   46 fps=6.3 q=-0.0 size=N/A time=00:00:42.00 bitrate=N/A speed=5.78x    ',\n 'frame=   50 fps=6.4 q=-0.0 size=N/A time=00:00:46.00 bitrate=N/A speed=5.89x    ',\n 'frame=   53 fps=6.4 q=-0.0 size=N/A time=00:00:49.00 bitrate=N/A speed=5.89x    ',\n 'frame=   57 fps=6.5 q=-0.0 size=N/A time=00:00:53.00 bitrate=N/A speed=   6x    ',\n 'frame=   60 fps=6.4 q=-0.0 size=N/A time=00:00:56.00 bitrate=N/A speed=   6x    ',\n 'frame=   64 fps=6.5 q=-0.0 size=N/A time=00:01:00.00 bitrate=N/A speed= 6.1x    ',\n 'frame=   67 fps=6.5 q=-0.0 size=N/A time=00:01:03.00 bitrate=N/A speed=6.09x    ',\n 'frame=   70 fps=6.5 q=-0.0 size=N/A time=00:01:06.00 bitrate=N/A speed=6.09x    ',\n 'frame=   74 fps=6.5 q=-0.0 size=N/A time=00:01:10.00 bitrate=N/A speed=6.16x    ',\n 'frame=   77 fps=6.5 q=-0.0 size=N/A time=00:01:13.00 bitrate=N/A speed=6.15x    ',\n 'frame=   80 fps=6.5 q=-0.0 size=N/A time=00:01:16.00 bitrate=N/A speed=6.14x    ',\n 'frame=   84 fps=6.5 q=-0.0 size=N/A time=00:01:20.00 bitrate=N/A speed=6.21x    ',\n 'frame=   88 fps=6.5 q=-0.0 size=N/A time=00:01:24.00 bitrate=N/A speed=6.24x    ',\n 'frame=   91 fps=6.5 q=-0.0 size=N/A time=00:01:27.00 bitrate=N/A speed=6.24x    ',\n 'frame=   95 fps=6.5 q=-0.0 size=N/A time=00:01:31.00 bitrate=N/A speed=6.26x    ',\n 'frame=   99 fps=6.6 q=-0.0 size=N/A time=00:01:35.00 bitrate=N/A speed=6.31x    ',\n 'frame=  102 fps=6.6 q=-0.0 size=N/A time=00:01:38.00 bitrate=N/A speed= 6.3x    ',\n 'frame=  105 fps=6.5 q=-0.0 size=N/A time=00:01:41.00 bitrate=N/A speed=6.29x    ',\n 'frame=  109 fps=6.6 q=-0.0 size=N/A time=00:01:45.00 bitrate=N/A speed=6.34x    ',\n 'frame=  112 fps=6.6 q=-0.0 size=N/A time=00:01:48.00 bitrate=N/A speed=6.32x    ',\n 'frame=  115 fps=6.5 q=-0.0 size=N/A time=00:01:51.00 bitrate=N/A speed=6.31x    ',\n 'frame=  119 fps=6.6 q=-0.0 size=N/A time=00:01:55.00 bitrate=N/A speed=6.35x    ',\n 'frame=  122 fps=6.6 q=-0.0 size=N/A time=00:01:58.00 bitrate=N/A speed=6.34x    ',\n 'frame=  126 fps=6.6 q=-0.0 size=N/A time=00:02:02.00 bitrate=N/A speed=6.38x    ',\n 'frame=  129 fps=6.6 q=-0.0 size=N/A time=00:02:05.00 bitrate=N/A speed=6.37x    ',\n 'frame=  132 fps=6.6 q=-0.0 size=N/A time=00:02:08.00 bitrate=N/A speed=6.35x    ',\n 'frame=  136 fps=6.6 q=-0.0 size=N/A time=00:02:12.00 bitrate=N/A speed=6.39x    ',\n 'frame=  139 fps=6.6 q=-0.0 size=N/A time=00:02:15.00 bitrate=N/A speed=6.38x    ',\n 'frame=  142 fps=6.6 q=-0.0 size=N/A time=00:02:18.00 bitrate=N/A speed=6.37x    ',\n 'frame=  146 fps=6.6 q=-0.0 size=N/A time=00:02:22.00 bitrate=N/A speed=6.41x    ',\n 'frame=  150 fps=6.6 q=-0.0 size=N/A time=00:02:26.00 bitrate=N/A speed=6.43x    ',\n 'frame=  153 fps=6.6 q=-0.0 size=N/A time=00:02:29.00 bitrate=N/A speed=6.42x    ',\n 'frame=  156 fps=6.6 q=-0.0 size=N/A time=00:02:32.00 bitrate=N/A speed=6.41x    ',\n 'frame=  159 fps=6.6 q=-0.0 size=N/A time=00:02:35.00 bitrate=N/A speed= 6.4x    ',\n 'frame=  163 fps=6.6 q=-0.0 size=N/A time=00:02:39.00 bitrate=N/A speed=6.42x    ',\n 'frame=  167 fps=6.6 q=-0.0 size=N/A time=00:02:43.00 bitrate=N/A speed=6.44x    ',\n 'frame=  170 fps=6.6 q=-0.0 size=N/A time=00:02:46.00 bitrate=N/A speed=6.43x    ',\n 'frame=  174 fps=6.6 q=-0.0 size=N/A time=00:02:50.00 bitrate=N/A speed=6.46x    ',\n 'frame=  177 fps=6.6 q=-0.0 size=N/A time=00:02:53.00 bitrate=N/A speed=6.45x    ',\n 'frame=  180 fps=6.6 q=-0.0 size=N/A time=00:02:56.00 bitrate=N/A speed=6.44x    ',\n 'frame=  184 fps=6.6 q=-0.0 size=N/A time=00:03:00.00 bitrate=N/A speed=6.46x    ',\n 'frame=  186 fps=6.6 q=-0.0 size=N/A time=00:03:02.00 bitrate=N/A speed=6.42x    ',\n 'frame=  189 fps=6.5 q=-0.0 size=N/A time=00:03:05.00 bitrate=N/A speed=6.41x    ',\n 'frame=  192 fps=6.5 q=-0.0 size=N/A time=00:03:08.00 bitrate=N/A speed=6.39x    ',\n 'frame=  194 fps=6.5 q=-0.0 size=N/A time=00:03:10.00 bitrate=N/A speed=6.35x    ',\n 'frame=  197 fps=6.5 q=-0.0 size=N/A time=00:03:13.00 bitrate=N/A speed=6.35x    ',\n 'frame=  201 fps=6.5 q=-0.0 size=N/A time=00:03:17.00 bitrate=N/A speed=6.36x    ',\n 'frame=  205 fps=6.5 q=-0.0 size=N/A time=00:03:21.00 bitrate=N/A speed=6.38x    ',\n 'frame=  209 fps=6.5 q=-0.0 size=N/A time=00:03:25.00 bitrate=N/A speed=6.39x    ',\n 'frame=  212 fps=6.5 q=-0.0 size=N/A time=00:03:28.00 bitrate=N/A speed=6.38x    ',\n 'frame=  215 fps=6.5 q=-0.0 size=N/A time=00:03:31.00 bitrate=N/A speed=6.37x    ',\n 'frame=  219 fps=6.5 q=-0.0 size=N/A time=00:03:35.00 bitrate=N/A speed=6.39x    ',\n 'frame=  222 fps=6.5 q=-0.0 size=N/A time=00:03:38.00 bitrate=N/A speed=6.39x    ',\n 'frame=  226 fps=6.5 q=-0.0 size=N/A time=00:03:42.00 bitrate=N/A speed=6.41x    ',\n 'frame=  229 fps=6.5 q=-0.0 size=N/A time=00:03:45.00 bitrate=N/A speed= 6.4x    ',\n 'frame=  232 fps=6.5 q=-0.0 size=N/A time=00:03:48.00 bitrate=N/A speed=6.39x    ',\n 'frame=  235 fps=6.5 q=-0.0 size=N/A time=00:03:51.00 bitrate=N/A speed=6.39x    ',\n 'frame=  238 fps=6.5 q=-0.0 size=N/A time=00:03:54.00 bitrate=N/A speed=6.38x    ',\n 'frame=  241 fps=6.5 q=-0.0 size=N/A time=00:03:57.00 bitrate=N/A speed=6.37x    ',\n 'frame=  245 fps=6.5 q=-0.0 size=N/A time=00:04:01.00 bitrate=N/A speed=6.39x    ',\n 'frame=  248 fps=6.5 q=-0.0 size=N/A time=00:04:04.00 bitrate=N/A speed=6.38x    ',\n 'frame=  251 fps=6.5 q=-0.0 size=N/A time=00:04:07.00 bitrate=N/A speed=6.38x    ',\n 'frame=  255 fps=6.5 q=-0.0 size=N/A time=00:04:11.00 bitrate=N/A speed= 6.4x    ',\n 'frame=  258 fps=6.5 q=-0.0 size=N/A time=00:04:14.00 bitrate=N/A speed=6.39x    ',\n 'frame=  262 fps=6.5 q=-0.0 size=N/A time=00:04:18.00 bitrate=N/A speed=6.41x    ',\n 'frame=  266 fps=6.5 q=-0.0 size=N/A time=00:04:22.00 bitrate=N/A speed=6.43x    ',\n 'frame=  268 fps=6.5 q=-0.0 size=N/A time=00:04:24.00 bitrate=N/A speed= 6.4x    ',\n 'frame=  272 fps=6.5 q=-0.0 size=N/A time=00:04:28.00 bitrate=N/A speed=6.42x    ',\n 'frame=  275 fps=6.5 q=-0.0 size=N/A time=00:04:31.00 bitrate=N/A speed=6.41x    ',\n 'frame=  278 fps=6.5 q=-0.0 size=N/A time=00:04:34.00 bitrate=N/A speed=6.41x    ',\n 'frame=  281 fps=6.5 q=-0.0 size=N/A time=00:04:37.00 bitrate=N/A speed= 6.4x    ',\n 'frame=  284 fps=6.5 q=-0.0 size=N/A time=00:04:40.00 bitrate=N/A speed=6.39x    ',\n 'frame=  287 fps=6.5 q=-0.0 size=N/A time=00:04:43.00 bitrate=N/A speed=6.39x    ',\n 'frame=  291 fps=6.5 q=-0.0 size=N/A time=00:04:47.00 bitrate=N/A speed= 6.4x    ',\n 'frame=  294 fps=6.5 q=-0.0 size=N/A time=00:04:50.00 bitrate=N/A speed=6.39x    ',\n 'frame=  298 fps=6.5 q=-0.0 size=N/A time=00:04:54.00 bitrate=N/A speed=6.41x    ',\n 'frame=  300 fps=6.5 q=-0.0 size=N/A time=00:04:56.00 bitrate=N/A speed=6.38x    ',\n 'frame=  304 fps=6.5 q=-0.0 size=N/A time=00:05:00.00 bitrate=N/A speed= 6.4x    ',\n 'frame=  307 fps=6.5 q=-0.0 size=N/A time=00:05:03.00 bitrate=N/A speed=6.39x    ',\n 'frame=  310 fps=6.5 q=-0.0 size=N/A time=00:05:06.00 bitrate=N/A speed=6.39x    ',\n 'frame=  312 fps=6.4 q=-0.0 size=N/A time=00:05:08.00 bitrate=N/A speed=6.36x    ',\n 'frame=  316 fps=6.5 q=-0.0 size=N/A time=00:05:12.00 bitrate=N/A speed=6.38x    ',\n 'frame=  319 fps=6.5 q=-0.0 size=N/A time=00:05:15.00 bitrate=N/A speed=6.37x    ',\n 'frame=  323 fps=6.5 q=-0.0 size=N/A time=00:05:19.00 bitrate=N/A speed=6.39x    ',\n 'frame=  326 fps=6.4 q=-0.0 size=N/A time=00:05:22.00 bitrate=N/A speed=6.37x    ',\n 'frame=  330 fps=6.5 q=-0.0 size=N/A time=00:05:26.00 bitrate=N/A speed=6.38x    ',\n 'frame=  332 fps=6.4 q=-0.0 size=N/A time=00:05:28.00 bitrate=N/A speed=6.36x    ',\n 'frame=  336 fps=6.4 q=-0.0 size=N/A time=00:05:32.00 bitrate=N/A speed=6.37x    ',\n 'frame=  339 fps=6.4 q=-0.0 size=N/A time=00:05:35.00 bitrate=N/A speed=6.37x    ',\n 'frame=  341 fps=6.4 q=-0.0 size=N/A time=00:05:37.00 bitrate=N/A speed=6.34x    ',\n 'frame=  345 fps=6.4 q=-0.0 size=N/A time=00:05:41.00 bitrate=N/A speed=6.35x    ',\n 'frame=  348 fps=6.4 q=-0.0 size=N/A time=00:05:44.00 bitrate=N/A speed=6.34x    ',\n 'frame=  351 fps=6.4 q=-0.0 size=N/A time=00:05:47.00 bitrate=N/A speed=6.34x    ',\n 'frame=  354 fps=6.4 q=-0.0 size=N/A time=00:05:50.00 bitrate=N/A speed=6.34x    ',\n 'frame=  358 fps=6.4 q=-0.0 size=N/A time=00:05:54.00 bitrate=N/A speed=6.35x    ',\n 'frame=  360 fps=6.4 q=-0.0 size=N/A time=00:05:56.00 bitrate=N/A speed=6.33x    ',\n 'frame=  364 fps=6.4 q=-0.0 size=N/A time=00:06:00.00 bitrate=N/A speed=6.34x    ',\n 'frame=  367 fps=6.4 q=-0.0 size=N/A time=00:06:03.00 bitrate=N/A speed=6.34x    ',\n 'frame=  370 fps=6.4 q=-0.0 size=N/A time=00:06:06.00 bitrate=N/A speed=6.33x    ',\n 'frame=  373 fps=6.4 q=-0.0 size=N/A time=00:06:09.00 bitrate=N/A speed=6.33x    ',\n 'frame=  376 fps=6.4 q=-0.0 size=N/A time=00:06:12.00 bitrate=N/A speed=6.32x    ',\n 'frame=  379 fps=6.4 q=-0.0 size=N/A time=00:06:15.00 bitrate=N/A speed=6.32x    ',\n 'frame=  382 fps=6.4 q=-0.0 size=N/A time=00:06:18.00 bitrate=N/A speed=6.32x    ',\n 'frame=  385 fps=6.4 q=-0.0 size=N/A time=00:06:21.00 bitrate=N/A speed=6.32x    ',\n 'frame=  387 fps=6.4 q=-0.0 size=N/A time=00:06:23.00 bitrate=N/A speed= 6.3x    ',\n 'frame=  390 fps=6.4 q=-0.0 size=N/A time=00:06:26.00 bitrate=N/A speed=6.29x    ',\n 'frame=  392 fps=6.3 q=-0.0 size=N/A time=00:06:28.00 bitrate=N/A speed=6.27x    ',\n 'frame=  395 fps=6.3 q=-0.0 size=N/A time=00:06:31.00 bitrate=N/A speed=6.27x    ',\n 'frame=  398 fps=6.3 q=-0.0 size=N/A time=00:06:34.00 bitrate=N/A speed=6.26x    ',\n 'frame=  401 fps=6.3 q=-0.0 size=N/A time=00:06:37.00 bitrate=N/A speed=6.26x    ',\n 'frame=  404 fps=6.3 q=-0.0 size=N/A time=00:06:40.00 bitrate=N/A speed=6.26x    ',\n 'frame=  407 fps=6.3 q=-0.0 size=N/A time=00:06:43.00 bitrate=N/A speed=6.25x    ',\n 'frame=  410 fps=6.3 q=-0.0 size=N/A time=00:06:46.00 bitrate=N/A speed=6.25x    ',\n 'frame=  414 fps=6.3 q=-0.0 size=N/A time=00:06:50.00 bitrate=N/A speed=6.26x    ',\n 'frame=  417 fps=6.3 q=-0.0 size=N/A time=00:06:53.00 bitrate=N/A speed=6.25x    ',\n 'frame=  420 fps=6.3 q=-0.0 size=N/A time=00:06:56.00 bitrate=N/A speed=6.25x    ',\n 'frame=  423 fps=6.3 q=-0.0 size=N/A time=00:06:59.00 bitrate=N/A speed=6.25x    ',\n 'frame=  426 fps=6.3 q=-0.0 size=N/A time=00:07:02.00 bitrate=N/A speed=6.24x    ',\n 'frame=  429 fps=6.3 q=-0.0 size=N/A time=00:07:05.00 bitrate=N/A speed=6.24x    ',\n 'frame=  432 fps=6.3 q=-0.0 size=N/A time=00:07:08.00 bitrate=N/A speed=6.24x    ',\n 'frame=  435 fps=6.3 q=-0.0 size=N/A time=00:07:11.00 bitrate=N/A speed=6.24x    ',\n 'frame=  438 fps=6.3 q=-0.0 size=N/A time=00:07:14.00 bitrate=N/A speed=6.24x    ',\n 'frame=  441 fps=6.3 q=-0.0 size=N/A time=00:07:17.00 bitrate=N/A speed=6.23x    ',\n 'frame=  445 fps=6.3 q=-0.0 size=N/A time=00:07:21.00 bitrate=N/A speed=6.23x    ',\n 'frame=  448 fps=6.3 q=-0.0 size=N/A time=00:07:24.00 bitrate=N/A speed=6.23x    ',\n 'frame=  451 fps=6.3 q=-0.0 size=N/A time=00:07:27.00 bitrate=N/A speed=6.23x    ',\n 'frame=  455 fps=6.3 q=-0.0 size=N/A time=00:07:31.00 bitrate=N/A speed=6.24x    ',\n 'frame=  458 fps=6.3 q=-0.0 size=N/A time=00:07:34.00 bitrate=N/A speed=6.23x    ',\n 'frame=  461 fps=6.3 q=-0.0 size=N/A time=00:07:37.00 bitrate=N/A speed=6.23x    ',\n 'frame=  464 fps=6.3 q=-0.0 size=N/A time=00:07:40.00 bitrate=N/A speed=6.23x    ',\n 'frame=  467 fps=6.3 q=-0.0 size=N/A time=00:07:43.00 bitrate=N/A speed=6.23x    ',\n 'frame=  470 fps=6.3 q=-0.0 size=N/A time=00:07:46.00 bitrate=N/A speed=6.22x    ',\n 'frame=  474 fps=6.3 q=-0.0 size=N/A time=00:07:50.00 bitrate=N/A speed=6.23x    ',\n 'frame=  477 fps=6.3 q=-0.0 size=N/A time=00:07:53.00 bitrate=N/A speed=6.22x    ',\n 'frame=  480 fps=6.3 q=-0.0 size=N/A time=00:07:56.00 bitrate=N/A speed=6.22x    ',\n 'frame=  483 fps=6.3 q=-0.0 size=N/A time=00:07:59.00 bitrate=N/A speed=6.22x    ',\n 'frame=  486 fps=6.3 q=-0.0 size=N/A time=00:08:02.00 bitrate=N/A speed=6.21x    ',\n 'frame=  489 fps=6.3 q=-0.0 size=N/A time=00:08:05.00 bitrate=N/A speed=6.21x    ',\n 'frame=  492 fps=6.3 q=-0.0 size=N/A time=00:08:08.00 bitrate=N/A speed=6.21x    ',\n 'frame=  495 fps=6.3 q=-0.0 size=N/A time=00:08:11.00 bitrate=N/A speed= 6.2x    ',\n 'frame=  499 fps=6.3 q=-0.0 size=N/A time=00:08:15.00 bitrate=N/A speed=6.21x    ',\n 'frame=  502 fps=6.3 q=-0.0 size=N/A time=00:08:18.00 bitrate=N/A speed=6.21x    ',\n 'frame=  505 fps=6.3 q=-0.0 size=N/A time=00:08:21.00 bitrate=N/A speed=6.21x    ',\n 'frame=  508 fps=6.3 q=-0.0 size=N/A time=00:08:24.00 bitrate=N/A speed= 6.2x    ',\n 'frame=  511 fps=6.3 q=-0.0 size=N/A time=00:08:27.00 bitrate=N/A speed= 6.2x    ',\n 'frame=  514 fps=6.2 q=-0.0 size=N/A time=00:08:30.00 bitrate=N/A speed= 6.2x    ',\n 'frame=  518 fps=6.3 q=-0.0 size=N/A time=00:08:34.00 bitrate=N/A speed= 6.2x    ',\n 'frame=  521 fps=6.3 q=-0.0 size=N/A time=00:08:37.00 bitrate=N/A speed= 6.2x    ',\n 'frame=  524 fps=6.2 q=-0.0 size=N/A time=00:08:40.00 bitrate=N/A speed= 6.2x    ',\n 'frame=  527 fps=6.2 q=-0.0 size=N/A time=00:08:43.00 bitrate=N/A speed= 6.2x    ',\n 'frame=  530 fps=6.2 q=-0.0 size=N/A time=00:08:46.00 bitrate=N/A speed= 6.2x    ',\n 'frame=  534 fps=6.2 q=-0.0 size=N/A time=00:08:50.00 bitrate=N/A speed= 6.2x    ',\n 'frame=  537 fps=6.2 q=-0.0 size=N/A time=00:08:53.00 bitrate=N/A speed= 6.2x    ',\n 'frame=  540 fps=6.2 q=-0.0 size=N/A time=00:08:56.00 bitrate=N/A speed= 6.2x    ',\n 'frame=  544 fps=6.2 q=-0.0 size=N/A time=00:09:00.00 bitrate=N/A speed= 6.2x    ',\n 'frame=  547 fps=6.2 q=-0.0 size=N/A time=00:09:03.00 bitrate=N/A speed= 6.2x    ',\n 'frame=  549 fps=6.2 q=-0.0 size=N/A time=00:09:05.00 bitrate=N/A speed=6.19x    ',\n 'frame=  552 fps=6.2 q=-0.0 size=N/A time=00:09:08.00 bitrate=N/A speed=6.19x    ',\n 'frame=  556 fps=6.2 q=-0.0 size=N/A time=00:09:12.00 bitrate=N/A speed=6.19x    ',\n 'frame=  559 fps=6.2 q=-0.0 size=N/A time=00:09:15.00 bitrate=N/A speed=6.19x    ',\n 'frame=  562 fps=6.2 q=-0.0 size=N/A time=00:09:18.00 bitrate=N/A speed=6.19x    ',\n 'frame=  565 fps=6.2 q=-0.0 size=N/A time=00:09:21.00 bitrate=N/A speed=6.19x    ',\n 'frame=  568 fps=6.2 q=-0.0 size=N/A time=00:09:24.00 bitrate=N/A speed=6.19x    ',\n 'frame=  571 fps=6.2 q=-0.0 size=N/A time=00:09:27.00 bitrate=N/A speed=6.19x    ',\n 'frame=  575 fps=6.2 q=-0.0 size=N/A time=00:09:31.00 bitrate=N/A speed= 6.2x    ',\n 'frame=  577 fps=6.2 q=-0.0 size=N/A time=00:09:33.00 bitrate=N/A speed=6.18x    ',\n 'frame=  580 fps=6.2 q=-0.0 size=N/A time=00:09:36.00 bitrate=N/A speed=6.18x    ',\n 'frame=  582 fps=6.2 q=-0.0 size=N/A time=00:09:38.00 bitrate=N/A speed=6.17x    ',\n 'frame=  585 fps=6.2 q=-0.0 size=N/A time=00:09:41.00 bitrate=N/A speed=6.16x    ',\n 'frame=  588 fps=6.2 q=-0.0 size=N/A time=00:09:44.00 bitrate=N/A speed=6.16x    ',\n 'frame=  591 fps=6.2 q=-0.0 size=N/A time=00:09:47.00 bitrate=N/A speed=6.16x    ',\n 'frame=  595 fps=6.2 q=-0.0 size=N/A time=00:09:51.00 bitrate=N/A speed=6.17x    ',\n 'frame=  597 fps=6.2 q=-0.0 size=N/A time=00:09:53.00 bitrate=N/A speed=6.15x    ',\n 'frame=  601 fps=6.2 q=-0.0 size=N/A time=00:09:57.00 bitrate=N/A speed=6.16x    ',\n 'frame=  604 fps=6.2 q=-0.0 size=N/A time=00:10:00.00 bitrate=N/A speed=6.16x    ',\n 'frame=  607 fps=6.2 q=-0.0 size=N/A time=00:10:03.00 bitrate=N/A speed=6.16x    ',\n 'frame=  609 fps=6.2 q=-0.0 size=N/A time=00:10:05.00 bitrate=N/A speed=6.15x    ',\n 'frame=  613 fps=6.2 q=-0.0 size=N/A time=00:10:09.00 bitrate=N/A speed=6.16x    ',\n 'frame=  616 fps=6.2 q=-0.0 size=N/A time=00:10:12.00 bitrate=N/A speed=6.15x    ',\n 'frame=  619 fps=6.2 q=-0.0 size=N/A time=00:10:15.00 bitrate=N/A speed=6.15x    ',\n 'frame=  623 fps=6.2 q=-0.0 size=N/A time=00:10:19.00 bitrate=N/A speed=6.15x    ',\n 'frame=  627 fps=6.2 q=-0.0 size=N/A time=00:10:23.00 bitrate=N/A speed=6.15x    ',\n 'frame=  630 fps=6.2 q=-0.0 size=N/A time=00:10:26.00 bitrate=N/A speed=6.15x    ',\n 'frame=  633 fps=6.2 q=-0.0 size=N/A time=00:10:29.00 bitrate=N/A speed=6.15x    ',\n 'frame=  636 fps=6.2 q=-0.0 size=N/A time=00:10:32.00 bitrate=N/A speed=6.15x    ',\n 'frame=  640 fps=6.2 q=-0.0 size=N/A time=00:10:36.00 bitrate=N/A speed=6.15x    ',\n 'frame=  643 fps=6.2 q=-0.0 size=N/A time=00:10:39.00 bitrate=N/A speed=6.15x    ',\n 'frame=  646 fps=6.2 q=-0.0 size=N/A time=00:10:42.00 bitrate=N/A speed=6.15x    ',\n 'frame=  650 fps=6.2 q=-0.0 size=N/A time=00:10:46.00 bitrate=N/A speed=6.16x    ',\n 'frame=  652 fps=6.2 q=-0.0 size=N/A time=00:10:48.00 bitrate=N/A speed=6.15x    ',\n 'frame=  655 fps=6.2 q=-0.0 size=N/A time=00:10:51.00 bitrate=N/A speed=6.15x    ',\n 'frame=  658 fps=6.2 q=-0.0 size=N/A time=00:10:54.00 bitrate=N/A speed=6.15x    ',\n 'frame=  662 fps=6.2 q=-0.0 size=N/A time=00:10:58.00 bitrate=N/A speed=6.15x    ',\n 'frame=  665 fps=6.2 q=-0.0 size=N/A time=00:11:01.00 bitrate=N/A speed=6.15x    ',\n 'frame=  668 fps=6.2 q=-0.0 size=N/A time=00:11:04.00 bitrate=N/A speed=6.15x    ',\n 'frame=  671 fps=6.2 q=-0.0 size=N/A time=00:11:07.00 bitrate=N/A speed=6.15x    ',\n 'frame=  675 fps=6.2 q=-0.0 size=N/A time=00:11:11.00 bitrate=N/A speed=6.15x    ',\n 'frame=  678 fps=6.2 q=-0.0 size=N/A time=00:11:14.00 bitrate=N/A speed=6.14x    ',\n 'frame=  681 fps=6.2 q=-0.0 size=N/A time=00:11:17.00 bitrate=N/A speed=6.14x    ',\n 'frame=  684 fps=6.2 q=-0.0 size=N/A time=00:11:20.00 bitrate=N/A speed=6.14x    ',\n 'frame=  687 fps=6.2 q=-0.0 size=N/A time=00:11:23.00 bitrate=N/A speed=6.14x    ',\n 'frame=  691 fps=6.2 q=-0.0 size=N/A time=00:11:27.00 bitrate=N/A speed=6.15x    ',\n 'frame=  694 fps=6.2 q=-0.0 size=N/A time=00:11:30.00 bitrate=N/A speed=6.14x    ',\n 'frame=  698 fps=6.2 q=-0.0 size=N/A time=00:11:34.00 bitrate=N/A speed=6.15x    ',\n 'frame=  701 fps=6.2 q=-0.0 size=N/A time=00:11:37.00 bitrate=N/A speed=6.15x    ',\n 'frame=  705 fps=6.2 q=-0.0 size=N/A time=00:11:41.00 bitrate=N/A speed=6.15x    ',\n 'frame=  708 fps=6.2 q=-0.0 size=N/A time=00:11:44.00 bitrate=N/A speed=6.15x    ',\n 'frame=  710 fps=6.2 q=-0.0 size=N/A time=00:11:46.00 bitrate=N/A speed=6.14x    ',\n 'frame=  713 fps=6.2 q=-0.0 size=N/A time=00:11:49.00 bitrate=N/A speed=6.14x    ',\n 'frame=  716 fps=6.2 q=-0.0 size=N/A time=00:11:52.00 bitrate=N/A speed=6.14x    ',\n 'frame=  720 fps=6.2 q=-0.0 size=N/A time=00:11:56.00 bitrate=N/A speed=6.15x    ',\n 'frame=  723 fps=6.2 q=-0.0 size=N/A time=00:11:59.00 bitrate=N/A speed=6.14x    ',\n 'frame=  726 fps=6.2 q=-0.0 size=N/A time=00:12:02.00 bitrate=N/A speed=6.14x    ',\n 'frame=  728 fps=6.2 q=-0.0 size=N/A time=00:12:04.00 bitrate=N/A speed=6.13x    ',\n 'frame=  731 fps=6.2 q=-0.0 size=N/A time=00:12:07.00 bitrate=N/A speed=6.13x    ',\n 'frame=  735 fps=6.2 q=-0.0 size=N/A time=00:12:11.00 bitrate=N/A speed=6.14x    ',\n 'frame=  738 fps=6.2 q=-0.0 size=N/A time=00:12:14.00 bitrate=N/A speed=6.14x    ',\n 'frame=  741 fps=6.2 q=-0.0 size=N/A time=00:12:17.00 bitrate=N/A speed=6.14x    ',\n 'frame=  744 fps=6.2 q=-0.0 size=N/A time=00:12:20.00 bitrate=N/A speed=6.14x    ',\n 'frame=  747 fps=6.2 q=-0.0 size=N/A time=00:12:23.00 bitrate=N/A speed=6.14x    ',\n 'frame=  750 fps=6.2 q=-0.0 size=N/A time=00:12:26.00 bitrate=N/A speed=6.14x    ',\n 'frame=  753 fps=6.2 q=-0.0 size=N/A time=00:12:29.00 bitrate=N/A speed=6.14x    ',\n 'frame=  756 fps=6.2 q=-0.0 size=N/A time=00:12:32.00 bitrate=N/A speed=6.13x    ',\n 'frame=  760 fps=6.2 q=-0.0 size=N/A time=00:12:36.00 bitrate=N/A speed=6.14x    ',\n 'frame=  762 fps=6.2 q=-0.0 size=N/A time=00:12:38.00 bitrate=N/A speed=6.13x    ',\n 'frame=  766 fps=6.2 q=-0.0 size=N/A time=00:12:42.00 bitrate=N/A speed=6.14x    ',\n 'frame=  770 fps=6.2 q=-0.0 size=N/A time=00:12:46.00 bitrate=N/A speed=6.14x    ',\n 'frame=  772 fps=6.2 q=-0.0 size=N/A time=00:12:48.00 bitrate=N/A speed=6.13x    ',\n 'frame=  774 fps=6.2 q=-0.0 size=N/A time=00:12:50.00 bitrate=N/A speed=6.12x    ',\n 'frame=  776 fps=6.1 q=-0.0 size=N/A time=00:12:52.00 bitrate=N/A speed=6.11x    ',\n 'frame=  779 fps=6.1 q=-0.0 size=N/A time=00:12:55.00 bitrate=N/A speed=6.11x    ',\n 'frame=  782 fps=6.1 q=-0.0 size=N/A time=00:12:58.00 bitrate=N/A speed=6.11x    ',\n 'frame=  785 fps=6.1 q=-0.0 size=N/A time=00:13:01.00 bitrate=N/A speed=6.11x    ',\n 'frame=  788 fps=6.1 q=-0.0 size=N/A time=00:13:04.00 bitrate=N/A speed=6.11x    ',\n 'frame=  791 fps=6.1 q=-0.0 size=N/A time=00:13:07.00 bitrate=N/A speed=6.11x    ',\n 'frame=  795 fps=6.1 q=-0.0 size=N/A time=00:13:11.00 bitrate=N/A speed=6.11x    ',\n 'frame=  798 fps=6.1 q=-0.0 size=N/A time=00:13:14.00 bitrate=N/A speed=6.11x    ',\n 'frame=  801 fps=6.1 q=-0.0 size=N/A time=00:13:17.00 bitrate=N/A speed=6.11x    ',\n 'frame=  804 fps=6.1 q=-0.0 size=N/A time=00:13:20.00 bitrate=N/A speed=6.11x    ',\n 'frame=  807 fps=6.1 q=-0.0 size=N/A time=00:13:23.00 bitrate=N/A speed=6.11x    ',\n 'frame=  810 fps=6.1 q=-0.0 size=N/A time=00:13:26.00 bitrate=N/A speed=6.11x    ',\n 'frame=  813 fps=6.1 q=-0.0 size=N/A time=00:13:29.00 bitrate=N/A speed=6.11x    ',\n 'frame=  816 fps=6.1 q=-0.0 size=N/A time=00:13:32.00 bitrate=N/A speed=6.11x    ',\n 'frame=  820 fps=6.1 q=-0.0 size=N/A time=00:13:36.00 bitrate=N/A speed=6.11x    ',\n 'frame=  823 fps=6.1 q=-0.0 size=N/A time=00:13:39.00 bitrate=N/A speed=6.11x    ',\n 'frame=  826 fps=6.1 q=-0.0 size=N/A time=00:13:42.00 bitrate=N/A speed=6.11x    ',\n 'frame=  830 fps=6.1 q=-0.0 size=N/A time=00:13:46.00 bitrate=N/A speed=6.11x    ',\n 'frame=  833 fps=6.1 q=-0.0 size=N/A time=00:13:49.00 bitrate=N/A speed=6.11x    ',\n 'frame=  836 fps=6.1 q=-0.0 size=N/A time=00:13:52.00 bitrate=N/A speed=6.11x    ',\n 'frame=  839 fps=6.1 q=-0.0 size=N/A time=00:13:55.00 bitrate=N/A speed=6.11x    ',\n 'frame=  842 fps=6.1 q=-0.0 size=N/A time=00:13:58.00 bitrate=N/A speed=6.11x    ',\n 'frame=  845 fps=6.1 q=-0.0 size=N/A time=00:14:01.00 bitrate=N/A speed=6.11x    ',\n 'frame=  848 fps=6.1 q=-0.0 size=N/A time=00:14:04.00 bitrate=N/A speed=6.11x    ',\n 'frame=  851 fps=6.1 q=-0.0 size=N/A time=00:14:07.00 bitrate=N/A speed=6.11x    ',\n 'frame=  854 fps=6.1 q=-0.0 size=N/A time=00:14:10.00 bitrate=N/A speed= 6.1x    ',\n 'frame=  857 fps=6.1 q=-0.0 size=N/A time=00:14:13.00 bitrate=N/A speed= 6.1x    ',\n 'frame=  860 fps=6.1 q=-0.0 size=N/A time=00:14:16.00 bitrate=N/A speed= 6.1x    ',\n 'frame=  863 fps=6.1 q=-0.0 size=N/A time=00:14:19.00 bitrate=N/A speed= 6.1x    ',\n 'frame=  866 fps=6.1 q=-0.0 size=N/A time=00:14:22.00 bitrate=N/A speed= 6.1x    ',\n 'frame=  869 fps=6.1 q=-0.0 size=N/A time=00:14:25.00 bitrate=N/A speed= 6.1x    ',\n 'frame=  872 fps=6.1 q=-0.0 size=N/A time=00:14:28.00 bitrate=N/A speed= 6.1x    ',\n 'frame=  876 fps=6.1 q=-0.0 size=N/A time=00:14:32.00 bitrate=N/A speed= 6.1x    ',\n 'frame=  879 fps=6.1 q=-0.0 size=N/A time=00:14:35.00 bitrate=N/A speed= 6.1x    ',\n 'frame=  882 fps=6.1 q=-0.0 size=N/A time=00:14:38.00 bitrate=N/A speed= 6.1x    ',\n 'frame=  885 fps=6.1 q=-0.0 size=N/A time=00:14:41.00 bitrate=N/A speed= 6.1x    ',\n 'frame=  889 fps=6.1 q=-0.0 size=N/A time=00:14:45.00 bitrate=N/A speed= 6.1x    ',\n 'frame=  891 fps=6.1 q=-0.0 size=N/A time=00:14:47.00 bitrate=N/A speed= 6.1x    ',\n 'frame=  895 fps=6.1 q=-0.0 size=N/A time=00:14:51.00 bitrate=N/A speed= 6.1x    ',\n 'frame=  898 fps=6.1 q=-0.0 size=N/A time=00:14:54.00 bitrate=N/A speed= 6.1x    ',\n 'frame=  900 fps=6.1 q=-0.0 Lsize=N/A time=00:15:00.00 bitrate=N/A speed=6.11x    ',\n 'video:3342443kB audio:0kB subtitle:0kB other streams:0kB global headers:0kB muxing overhead: unknown']"},"metadata":{}}]},{"cell_type":"code","source":"!pip install torch torchvision","metadata":{"execution":{"iopub.status.busy":"2024-07-31T12:42:51.782714Z","iopub.execute_input":"2024-07-31T12:42:51.783799Z","iopub.status.idle":"2024-07-31T12:43:05.012356Z","shell.execute_reply.started":"2024-07-31T12:42:51.783724Z","shell.execute_reply":"2024-07-31T12:43:05.011059Z"},"trusted":true},"execution_count":4,"outputs":[{"name":"stdout","text":"Requirement already satisfied: torch in /opt/conda/lib/python3.10/site-packages (2.1.2+cpu)\nRequirement already satisfied: torchvision in /opt/conda/lib/python3.10/site-packages (0.16.2+cpu)\nRequirement already satisfied: filelock in /opt/conda/lib/python3.10/site-packages (from torch) (3.13.1)\nRequirement already satisfied: typing-extensions in /opt/conda/lib/python3.10/site-packages (from torch) (4.9.0)\nRequirement already satisfied: sympy in /opt/conda/lib/python3.10/site-packages (from torch) (1.13.0)\nRequirement already satisfied: networkx in /opt/conda/lib/python3.10/site-packages (from torch) (3.2.1)\nRequirement already satisfied: jinja2 in /opt/conda/lib/python3.10/site-packages (from torch) (3.1.2)\nRequirement already satisfied: fsspec in /opt/conda/lib/python3.10/site-packages (from torch) (2024.5.0)\nRequirement already satisfied: numpy in /opt/conda/lib/python3.10/site-packages (from torchvision) (1.26.4)\nRequirement already satisfied: requests in /opt/conda/lib/python3.10/site-packages (from torchvision) (2.32.3)\nRequirement already satisfied: pillow!=8.3.*,>=5.3.0 in /opt/conda/lib/python3.10/site-packages (from torchvision) (9.5.0)\nRequirement already satisfied: MarkupSafe>=2.0 in /opt/conda/lib/python3.10/site-packages (from jinja2->torch) (2.1.3)\nRequirement already satisfied: charset-normalizer<4,>=2 in /opt/conda/lib/python3.10/site-packages (from requests->torchvision) (3.3.2)\nRequirement already satisfied: idna<4,>=2.5 in /opt/conda/lib/python3.10/site-packages (from requests->torchvision) (3.6)\nRequirement already satisfied: urllib3<3,>=1.21.1 in /opt/conda/lib/python3.10/site-packages (from requests->torchvision) (1.26.18)\nRequirement already satisfied: certifi>=2017.4.17 in /opt/conda/lib/python3.10/site-packages (from requests->torchvision) (2024.7.4)\nRequirement already satisfied: mpmath<1.4,>=1.1.0 in /opt/conda/lib/python3.10/site-packages (from sympy->torch) (1.3.0)\n","output_type":"stream"}]},{"cell_type":"code","source":"import os\nimport glob\nimport torch\nfrom torchvision import transforms\nfrom PIL import Image","metadata":{"execution":{"iopub.status.busy":"2024-07-31T12:45:56.979686Z","iopub.execute_input":"2024-07-31T12:45:56.980075Z","iopub.status.idle":"2024-07-31T12:45:56.984792Z","shell.execute_reply.started":"2024-07-31T12:45:56.980047Z","shell.execute_reply":"2024-07-31T12:45:56.983699Z"},"trusted":true},"execution_count":7,"outputs":[]},{"cell_type":"code","source":"frames_dir = '/kaggle/working/'\n\nframe_files = sorted([os.path.join(frames_dir, file) for file in os.listdir(frames_dir) if file.endswith('.png')])\n\ntransform = transforms.Compose([\n    transforms.Resize((224, 224)),  \n    transforms.ToTensor(), \n    transforms.Normalize(mean=[0.485, 0.456, 0.406], std=[0.229, 0.224, 0.225])  \n])\n\n# Load and convert all frames to tensors\nframes_tensor = torch.stack([transform(Image.open(file)) for file in frame_files])\n\nprint(frames_tensor.shape)  \n\ntorch.save(frames_tensor, '/kaggle/working/frames_tensor.pt')","metadata":{"execution":{"iopub.status.busy":"2024-07-31T12:43:21.888286Z","iopub.execute_input":"2024-07-31T12:43:21.888761Z","iopub.status.idle":"2024-07-31T12:44:28.717557Z","shell.execute_reply.started":"2024-07-31T12:43:21.888712Z","shell.execute_reply":"2024-07-31T12:44:28.716430Z"},"trusted":true},"execution_count":5,"outputs":[{"name":"stdout","text":"torch.Size([900, 3, 224, 224])\n","output_type":"stream"}]},{"cell_type":"code","source":"png_files = glob.glob('/kaggle/working/*.png')\n\nfor file in png_files:\n    os.remove(file)\n\nprint(f\"Deleted {len(png_files)} .png files from /kaggle/working directory.\")","metadata":{"execution":{"iopub.status.busy":"2024-07-31T12:46:06.750072Z","iopub.execute_input":"2024-07-31T12:46:06.750489Z","iopub.status.idle":"2024-07-31T12:46:07.166688Z","shell.execute_reply.started":"2024-07-31T12:46:06.750457Z","shell.execute_reply":"2024-07-31T12:46:07.165533Z"},"trusted":true},"execution_count":8,"outputs":[{"name":"stdout","text":"Deleted 900 .png files from /kaggle/working directory.\n","output_type":"stream"}]},{"cell_type":"code","source":"!ffmpeg -i /kaggle/input/sample-bengaluru-mobility/18th_Crs_BsStp_JN_FIX_1_000.mp4 -vf \"fps=0.5,scale=640:360\" /kaggle/working/frame_%04d.png","metadata":{"execution":{"iopub.status.busy":"2024-07-31T12:50:10.504914Z","iopub.execute_input":"2024-07-31T12:50:10.505337Z","iopub.status.idle":"2024-07-31T12:51:11.258085Z","shell.execute_reply.started":"2024-07-31T12:50:10.505309Z","shell.execute_reply":"2024-07-31T12:51:11.256728Z"},"trusted":true},"execution_count":9,"outputs":[{"name":"stdout","text":"ffmpeg version 4.2.7-0ubuntu0.1 Copyright (c) 2000-2022 the FFmpeg developers\n  built with gcc 9 (Ubuntu 9.4.0-1ubuntu1~20.04.1)\n  configuration: --prefix=/usr --extra-version=0ubuntu0.1 --toolchain=hardened --libdir=/usr/lib/x86_64-linux-gnu --incdir=/usr/include/x86_64-linux-gnu --arch=amd64 --enable-gpl --disable-stripping --enable-avresample --disable-filter=resample --enable-avisynth --enable-gnutls --enable-ladspa --enable-libaom --enable-libass --enable-libbluray --enable-libbs2b --enable-libcaca --enable-libcdio --enable-libcodec2 --enable-libflite --enable-libfontconfig --enable-libfreetype --enable-libfribidi --enable-libgme --enable-libgsm --enable-libjack --enable-libmp3lame --enable-libmysofa --enable-libopenjpeg --enable-libopenmpt --enable-libopus --enable-libpulse --enable-librsvg --enable-librubberband --enable-libshine --enable-libsnappy --enable-libsoxr --enable-libspeex --enable-libssh --enable-libtheora --enable-libtwolame --enable-libvidstab --enable-libvorbis --enable-libvpx --enable-libwavpack --enable-libwebp --enable-libx265 --enable-libxml2 --enable-libxvid --enable-libzmq --enable-libzvbi --enable-lv2 --enable-omx --enable-openal --enable-opencl --enable-opengl --enable-sdl2 --enable-libdc1394 --enable-libdrm --enable-libiec61883 --enable-nvenc --enable-chromaprint --enable-frei0r --enable-libx264 --enable-shared\n  libavutil      56. 31.100 / 56. 31.100\n  libavcodec     58. 54.100 / 58. 54.100\n  libavformat    58. 29.100 / 58. 29.100\n  libavdevice    58.  8.100 / 58.  8.100\n  libavfilter     7. 57.100 /  7. 57.100\n  libavresample   4.  0.  0 /  4.  0.  0\n  libswscale      5.  5.100 /  5.  5.100\n  libswresample   3.  5.100 /  3.  5.100\n  libpostproc    55.  5.100 / 55.  5.100\nInput #0, mov,mp4,m4a,3gp,3g2,mj2, from '/kaggle/input/sample-bengaluru-mobility/18th_Crs_BsStp_JN_FIX_1_000.mp4':\n  Metadata:\n    major_brand     : isom\n    minor_version   : 512\n    compatible_brands: isomiso2avc1mp41\n    encoder         : Lavf58.76.100\n  Duration: 00:15:00.00, start: 0.000000, bitrate: 618 kb/s\n    Stream #0:0(und): Video: h264 (High) (avc1 / 0x31637661), yuvj420p(pc, bt709), 1920x1080, 616 kb/s, 25 fps, 25 tbr, 12800 tbn, 50 tbc (default)\n    Metadata:\n      handler_name    : VideoHandler\nStream mapping:\n  Stream #0:0 -> #0:0 (h264 (native) -> png (native))\nPress [q] to stop, [?] for help\n\u001b[1;34m[swscaler @ 0x5821a982b180] \u001b[0m\u001b[0;33mdeprecated pixel format used, make sure you did set range correctly\n\u001b[0mOutput #0, image2, to '/kaggle/working/frame_%04d.png':\n  Metadata:\n    major_brand     : isom\n    minor_version   : 512\n    compatible_brands: isomiso2avc1mp41\n    encoder         : Lavf58.29.100\n    Stream #0:0(und): Video: png, rgb24, 640x360, q=2-31, 200 kb/s, 0.50 fps, 0.50 tbn, 0.50 tbc (default)\n    Metadata:\n      handler_name    : VideoHandler\n      encoder         : Lavc58.54.100 png\nframe=  450 fps=7.6 q=-0.0 Lsize=N/A time=00:15:00.00 bitrate=N/A speed=15.2x    \nvideo:213691kB audio:0kB subtitle:0kB other streams:0kB global headers:0kB muxing overhead: unknown\n","output_type":"stream"}]},{"cell_type":"code","source":"frames_dir = '/kaggle/working/'\n\nframe_files = sorted([os.path.join(frames_dir, file) for file in os.listdir(frames_dir) if file.endswith('.png')])\n\ntransform = transforms.Compose([\n    transforms.Resize((224, 224)),  \n    transforms.ToTensor(), \n    transforms.Normalize(mean=[0.485, 0.456, 0.406], std=[0.229, 0.224, 0.225])  \n])\n\n#float16\nframes_tensor = torch.stack([transform(Image.open(file)).half() for file in frame_files])\n\nprint(frames_tensor.shape)  \n\ntorch.save(frames_tensor, '/kaggle/working/frames_tensor_float16.pt')","metadata":{"execution":{"iopub.status.busy":"2024-07-31T12:53:24.883167Z","iopub.execute_input":"2024-07-31T12:53:24.883689Z","iopub.status.idle":"2024-07-31T12:53:29.970957Z","shell.execute_reply.started":"2024-07-31T12:53:24.883641Z","shell.execute_reply":"2024-07-31T12:53:29.969546Z"},"trusted":true},"execution_count":10,"outputs":[{"name":"stdout","text":"torch.Size([450, 3, 224, 224])\n","output_type":"stream"}]},{"cell_type":"code","source":"png_files = glob.glob('/kaggle/working/*.png')\n\nfor file in png_files:\n    os.remove(file)\n\nprint(f\"Deleted {len(png_files)} .png files from /kaggle/working directory.\")","metadata":{"execution":{"iopub.status.busy":"2024-07-31T12:53:41.736540Z","iopub.execute_input":"2024-07-31T12:53:41.736960Z","iopub.status.idle":"2024-07-31T12:53:41.796883Z","shell.execute_reply.started":"2024-07-31T12:53:41.736927Z","shell.execute_reply":"2024-07-31T12:53:41.795668Z"},"trusted":true},"execution_count":11,"outputs":[{"name":"stdout","text":"Deleted 450 .png files from /kaggle/working directory.\n","output_type":"stream"}]},{"cell_type":"code","source":"import h5py\nimport numpy as np","metadata":{"execution":{"iopub.status.busy":"2024-07-31T12:56:18.265572Z","iopub.execute_input":"2024-07-31T12:56:18.266641Z","iopub.status.idle":"2024-07-31T12:56:18.271418Z","shell.execute_reply.started":"2024-07-31T12:56:18.266599Z","shell.execute_reply":"2024-07-31T12:56:18.270076Z"},"trusted":true},"execution_count":13,"outputs":[]},{"cell_type":"code","source":"frames_np = frames_tensor.numpy()\n\nwith h5py.File('/kaggle/working/frames_tensor.h5', 'w') as f:\n    f.create_dataset('frames', data=frames_np, compression=\"gzip\", compression_opts=9)","metadata":{"execution":{"iopub.status.busy":"2024-07-31T12:55:49.279448Z","iopub.execute_input":"2024-07-31T12:55:49.279951Z","iopub.status.idle":"2024-07-31T12:56:04.698749Z","shell.execute_reply.started":"2024-07-31T12:55:49.279914Z","shell.execute_reply":"2024-07-31T12:56:04.697625Z"},"trusted":true},"execution_count":12,"outputs":[]},{"cell_type":"code","source":"","metadata":{},"execution_count":null,"outputs":[]}]}